<svg width="214" height="82" viewBox="0 0 214 82" fill="none" xmlns="http://www.w3.org/2000/svg">
<rect width="214" height="82" fill="url(#paint0_linear)"/>
<path d="M22.54 56.712H32.212C35.5053 56.712 37.152 55.048 37.152 51.72V48.132C37.152 44.8387 35.3493 43.192 31.744 43.192H22.54C22.1933 43.192 22.02 43.3307 22.02 43.608V56.244C22.02 56.556 22.1933 56.712 22.54 56.712ZM22.54 40.904H31.692C33.3213 40.904 34.5693 40.4707 35.436 39.604C36.3373 38.7373 36.788 37.5067 36.788 35.912V32.844C36.788 29.516 35.1413 27.852 31.848 27.852H22.54C22.1933 27.852 22.02 28.008 22.02 28.32V40.436C22.02 40.748 22.1933 40.904 22.54 40.904ZM19.42 58.376V26.188C19.42 25.772 19.5933 25.564 19.94 25.564H32.056C34.3093 25.564 36.0947 26.2053 37.412 27.488C38.7293 28.7707 39.388 30.5387 39.388 32.792V35.964C39.388 39.1187 37.8973 41.1467 34.916 42.048C36.1987 42.1173 37.3253 42.7067 38.296 43.816C39.2667 44.9253 39.752 46.364 39.752 48.132V51.772C39.752 54.0253 39.0933 55.7933 37.776 57.076C36.4587 58.3587 34.6733 59 32.42 59H19.94C19.5933 59 19.42 58.792 19.42 58.376ZM57.6347 59H54.2027C51.9841 59 50.2334 58.3413 48.9507 57.024C47.6681 55.7067 47.0267 53.904 47.0267 51.616V33.104C47.0267 32.688 47.2001 32.48 47.5467 32.48H49.0547C49.4361 32.48 49.6267 32.688 49.6267 33.104V51.512C49.6267 53.1413 50.0427 54.4067 50.8747 55.308C51.7067 56.2093 52.9201 56.66 54.5147 56.66H57.8947C59.5587 56.66 60.8587 56.2267 61.7947 55.36C62.7654 54.4587 63.2507 53.1933 63.2507 51.564V33.104C63.2507 32.688 63.4414 32.48 63.8227 32.48H65.3307C65.6774 32.48 65.8507 32.688 65.8507 33.104V58.376C65.8507 58.792 65.6774 59 65.3307 59H63.8227C63.4414 59 63.2507 58.792 63.2507 58.376V56.296H63.0427C62.1414 58.0987 60.3387 59 57.6347 59ZM74.8902 66.904H72.9662C72.5849 66.904 72.3942 66.7133 72.3942 66.332V65.084C72.3942 64.7027 72.5849 64.512 72.9662 64.512H74.3702C75.4102 64.512 76.2942 64.356 77.0222 64.044C77.7502 63.7667 78.3915 63.2293 78.9462 62.432C79.5009 61.6347 79.8649 61.0107 80.0382 60.56C80.5235 59.4853 80.9222 58.4973 81.2342 57.596H80.2462C79.8649 57.596 79.6222 57.388 79.5182 56.972L71.2502 33.104C71.1115 32.688 71.2502 32.48 71.6662 32.48H73.2782C73.6249 32.48 73.8502 32.688 73.9542 33.104L81.5982 55.412H81.8062L89.4502 33.104C89.5542 32.688 89.7795 32.48 90.1262 32.48H91.6862C92.1022 32.48 92.2582 32.688 92.1542 33.104C85.9489 51.2693 82.7075 60.664 82.4302 61.288C82.1875 61.912 81.7195 62.7613 81.0262 63.836C79.7089 65.8813 77.6635 66.904 74.8902 66.904ZM113.921 59H112.413C112.066 59 111.893 58.792 111.893 58.376V26.188C111.893 25.772 112.066 25.564 112.413 25.564H113.817C114.129 25.564 114.337 25.668 114.441 25.876L130.405 53.332H130.613V26.188C130.613 25.772 130.803 25.564 131.185 25.564H132.641C133.022 25.564 133.213 25.772 133.213 26.188V58.376C133.213 58.792 133.022 59 132.641 59H131.445C131.133 59 130.855 58.8093 130.613 58.428L114.701 31.18H114.493V58.376C114.493 58.792 114.302 59 113.921 59ZM152.718 59H148.246C145.993 59 144.207 58.3413 142.89 57.024C141.607 55.7067 140.966 53.904 140.966 51.616V39.864C140.966 37.576 141.607 35.7733 142.89 34.456C144.207 33.1387 145.993 32.48 148.246 32.48H152.718C154.971 32.48 156.757 33.1387 158.074 34.456C159.391 35.7733 160.05 37.576 160.05 39.864V51.616C160.05 53.904 159.391 55.7067 158.074 57.024C156.757 58.3413 154.971 59 152.718 59ZM148.454 56.66H152.51C154.105 56.66 155.318 56.2267 156.15 55.36C157.017 54.4587 157.45 53.1933 157.45 51.564V39.916C157.45 38.2867 157.017 37.0387 156.15 36.172C155.318 35.2707 154.105 34.82 152.51 34.82H148.454C146.859 34.82 145.646 35.2707 144.814 36.172C143.982 37.0387 143.566 38.2867 143.566 39.916V51.564C143.566 53.1933 143.982 54.4587 144.814 55.36C145.646 56.2267 146.859 56.66 148.454 56.66ZM174.511 59H172.431C172.084 59 171.859 58.792 171.755 58.376L164.475 33.104C164.371 32.688 164.509 32.48 164.891 32.48H166.555C166.936 32.48 167.161 32.688 167.231 33.104L173.367 55.724H173.627L179.659 33.104C179.728 32.688 179.971 32.48 180.387 32.48H181.895C182.311 32.48 182.553 32.688 182.623 33.104L188.551 55.724H188.811L194.999 33.104C195.103 32.688 195.328 32.48 195.675 32.48H197.339C197.755 32.48 197.893 32.688 197.755 33.104L190.527 58.376C190.423 58.792 190.18 59 189.799 59H187.719C187.337 59 187.095 58.792 186.991 58.376L181.219 36.432H180.959L175.239 58.376C175.135 58.792 174.892 59 174.511 59Z" fill="white"/>
<defs>
<linearGradient id="paint0_linear" x1="214" y1="40.481" x2="-29.3906" y2="40.481" gradientUnits="userSpaceOnUse">
<stop stop-color="#F8814E"/>
<stop offset="0.939623" stop-color="#FF879D"/>
</linearGradient>
</defs>
</svg>
