<svg xmlns="http://www.w3.org/2000/svg" fill="none" viewBox="0 0 319 129" height="129" width="319">
<path fill="#F8814E" d="M99.1252 76.2989C99.7003 87.2707 96.3814 98.1147 89.734 106.983C83.0866 115.852 73.5221 122.196 62.67 124.935C51.818 127.675 40.3499 126.639 30.2198 122.005C20.0897 117.372 11.9243 109.427 7.11497 99.5236C2.30565 89.6206 1.14993 78.3726 3.84473 67.6961C6.53953 57.0195 12.9181 47.5751 21.8937 40.9719C30.8692 34.3687 41.8863 31.0154 53.0679 31.4833C64.2495 31.9512 74.9037 36.2114 83.2151 43.538L62.981 65.6387C59.8586 62.8863 55.8561 61.2858 51.6554 61.11C47.4547 60.9343 43.3158 62.194 39.9439 64.6747C36.572 67.1553 34.1757 70.7034 33.1633 74.7144C32.151 78.7253 32.5851 82.9509 34.3919 86.6713C36.1986 90.3916 39.2662 93.3764 43.0719 95.1172C46.8775 96.858 51.1858 97.247 55.2627 96.2179C59.3396 95.1888 62.9328 92.8054 65.43 89.4737C67.9273 86.1419 69.1741 82.0681 68.9581 77.9462L99.1252 76.2989Z"></path>
<path fill="#FF879D" d="M134 47.5C134 58.4894 130.109 69.1388 122.991 77.6337C115.873 86.1286 105.967 91.9434 94.9619 94.0873C83.9568 96.2312 72.5331 94.5716 62.6373 89.3913C52.7415 84.2109 44.9858 75.8303 40.6918 65.6775C36.3979 55.5246 35.8312 44.2277 39.0884 33.7115C42.3456 23.1953 49.2251 14.1106 58.5548 8.0052C67.8845 1.89983 79.0871 -0.848421 90.2538 0.228725C101.421 1.30587 111.86 6.14176 119.795 13.9124L99.5475 33.7422C96.2975 30.5592 92.0212 28.5784 87.4472 28.1372C82.8732 27.696 78.2845 28.8217 74.463 31.3225C70.6414 33.8233 67.8235 37.5445 66.4893 41.8521C65.1551 46.1596 65.3872 50.787 67.1461 54.9457C68.905 59.1044 72.0818 62.5372 76.1352 64.6591C80.1886 66.781 84.8679 67.4608 89.3757 66.5826C93.8835 65.7045 97.941 63.3227 100.857 59.8431C103.772 56.3635 105.366 52.0014 105.366 47.5H134Z"></path>
<path fill="black" d="M161.192 83H159.51C159.123 83 158.93 82.768 158.93 82.304V46.402C158.93 45.938 159.123 45.706 159.51 45.706H177.374C177.838 45.706 178.07 45.9187 178.07 46.344V47.678C178.07 48.1033 177.838 48.316 177.374 48.316H162.41C162.023 48.316 161.83 48.49 161.83 48.838V62.932C161.83 63.2413 162.023 63.396 162.41 63.396H175.808C176.233 63.396 176.446 63.6087 176.446 64.034V65.426C176.446 65.8513 176.233 66.064 175.808 66.064H162.41C162.023 66.064 161.83 66.2187 161.83 66.528V82.304C161.83 82.768 161.617 83 161.192 83ZM185.261 48.548V42.98C185.261 42.5547 185.454 42.342 185.841 42.342H187.581C187.968 42.342 188.161 42.5547 188.161 42.98V48.548C188.161 49.012 187.968 49.244 187.581 49.244H185.841C185.454 49.244 185.261 49.012 185.261 48.548ZM185.261 82.304V54.116C185.261 53.652 185.454 53.42 185.841 53.42H187.523C187.948 53.42 188.161 53.652 188.161 54.116V82.304C188.161 82.768 187.968 83 187.581 83H185.841C185.454 83 185.261 82.768 185.261 82.304ZM198.425 56.03H194.887C194.461 56.03 194.249 55.8367 194.249 55.45V54.058C194.249 53.6327 194.461 53.42 194.887 53.42H198.425C198.773 53.42 198.947 53.246 198.947 52.898V48.2C198.947 47.736 199.159 47.504 199.585 47.504H201.267C201.692 47.504 201.905 47.736 201.905 48.2V52.898C201.905 53.246 202.079 53.42 202.427 53.42H209.329C209.754 53.42 209.967 53.6327 209.967 54.058V55.45C209.967 55.8367 209.754 56.03 209.329 56.03H202.427C202.079 56.03 201.905 56.204 201.905 56.552V74.822C201.905 76.6007 202.407 77.9733 203.413 78.94C204.418 79.9067 205.829 80.39 207.647 80.39H209.909C210.334 80.39 210.547 80.6027 210.547 81.028V82.362C210.547 82.7873 210.334 83 209.909 83H207.415C204.863 83 202.813 82.2847 201.267 80.854C199.72 79.4233 198.947 77.4513 198.947 74.938V56.552C198.947 56.204 198.773 56.03 198.425 56.03ZM225.956 83H224.274C223.849 83 223.636 82.768 223.636 82.304V48.838C223.636 48.49 223.443 48.316 223.056 48.316H214.646C214.182 48.316 213.95 48.1033 213.95 47.678V46.344C213.95 45.9187 214.182 45.706 214.646 45.706H235.526C235.99 45.706 236.222 45.9187 236.222 46.344V47.678C236.222 48.1033 235.99 48.316 235.526 48.316H227.116C226.73 48.316 226.536 48.49 226.536 48.838V82.304C226.536 82.768 226.343 83 225.956 83ZM261.274 83H249.152C246.638 83 244.647 82.2653 243.178 80.796C241.747 79.3267 241.032 77.316 241.032 74.764V61.656C241.032 59.104 241.747 57.0933 243.178 55.624C244.647 54.1547 246.638 53.42 249.152 53.42H254.14C256.653 53.42 258.644 54.1547 260.114 55.624C261.583 57.0933 262.318 59.104 262.318 61.656V69.022C262.318 69.486 262.086 69.718 261.622 69.718H244.454C244.106 69.718 243.932 69.892 243.932 70.24V74.706C243.932 76.5233 244.396 77.9347 245.324 78.94C246.252 79.9067 247.605 80.39 249.384 80.39H261.274C261.699 80.39 261.912 80.6027 261.912 81.028V82.362C261.912 82.7873 261.699 83 261.274 83ZM244.454 67.398H258.896C259.244 67.398 259.418 67.224 259.418 66.876V61.714C259.418 59.8967 258.954 58.5047 258.026 57.538C257.098 56.5327 255.744 56.03 253.966 56.03H249.384C247.605 56.03 246.252 56.5327 245.324 57.538C244.396 58.5047 243.932 59.8967 243.932 61.714V66.876C243.932 67.224 244.106 67.398 244.454 67.398ZM286.689 81.028V82.362C286.689 82.7873 286.476 83 286.051 83H277.699C275.185 83 273.194 82.2653 271.725 80.796C270.294 79.3267 269.579 77.316 269.579 74.764V61.656C269.579 59.104 270.294 57.0933 271.725 55.624C273.194 54.1547 275.185 53.42 277.699 53.42H286.051C286.476 53.42 286.689 53.6327 286.689 54.058V55.45C286.689 55.8367 286.476 56.03 286.051 56.03H277.931C276.152 56.03 274.799 56.5327 273.871 57.538C272.943 58.5433 272.479 59.9547 272.479 61.772V74.648C272.479 76.4653 272.943 77.8767 273.871 78.882C274.799 79.8873 276.152 80.39 277.931 80.39H286.051C286.476 80.39 286.689 80.6027 286.689 81.028ZM295.247 83H293.565C293.178 83 292.985 82.768 292.985 82.304V42.922C292.985 42.458 293.178 42.226 293.565 42.226H295.247C295.672 42.226 295.885 42.458 295.885 42.922V56.436H296.117C297.199 54.4253 299.21 53.42 302.149 53.42H305.977C308.451 53.42 310.404 54.1547 311.835 55.624C313.265 57.0933 313.981 59.104 313.981 61.656V82.304C313.981 82.768 313.787 83 313.401 83H311.719C311.293 83 311.081 82.768 311.081 82.304V61.772C311.081 59.9547 310.617 58.5433 309.689 57.538C308.761 56.5327 307.407 56.03 305.629 56.03H301.859C300.003 56.03 298.533 56.5327 297.451 57.538C296.407 58.5047 295.885 59.8967 295.885 61.714V82.304C295.885 82.768 295.672 83 295.247 83Z"></path>
</svg>
